<?xml version="1.0" encoding="UTF-8" standalone="no"?>
<!DOCTYPE svg PUBLIC "-//W3C//DTD SVG 1.1//EN" "http://www.w3.org/Graphics/SVG/1.1/DTD/svg11.dtd">
<!-- Created with Vectornator (http://vectornator.io/) -->
<svg height="160.0px" stroke-miterlimit="10" style="fill-rule:nonzero;clip-rule:evenodd;stroke-linecap:round;stroke-linejoin:round;" version="1.1" viewBox="0 0 160 160" width="160.0px" xml:space="preserve" xmlns="http://www.w3.org/2000/svg" xmlns:xlink="http://www.w3.org/1999/xlink">
<defs>
<filter color-interpolation-filters="sRGB" filterUnits="userSpaceOnUse" height="237.363" id="Filter" width="237.363" x="-30.7137" y="-39.3983">
<feDropShadow dx="7.96783" dy="-0.716744" flood-color="#e3dcb2" flood-opacity="1" in="SourceGraphic" result="Shadow" stdDeviation="15.4726"/>
</filter>
<filter color-interpolation-filters="sRGB" filterUnits="userSpaceOnUse" height="251.65" id="Filter_2" width="491.65" x="-5.82508" y="-5.82508">
<feGaussianBlur in="SourceGraphic" result="Blur" stdDeviation="2.13178"/>
</filter>
</defs>
<clipPath id="ArtboardFrame">
<rect height="160" width="160" x="0" y="0"/>
</clipPath>
<g clip-path="url(#ArtboardFrame)" id="Star">
<path d="M0 80C0 80 44.7658 74.8151 60 60C75.1558 45.2611 80 0 80 0C80 0 86.2928 45.2611 100 60C115.446 76.6085 160 80 160 80C160 80 111.498 81.896 100 100C89.0739 117.204 80 160 80 160C80 160 74.5696 114.867 60 100C47.4817 87.2258 0 80 0 80Z" fill="#ebdf92" fill-rule="nonzero" filter="url(#Filter)" stroke="none"/>
</g>
<g clip-path="url(#ArtboardFrame)" id="Layer-2" visibility="hidden">
<g filter="url(#Filter_2)" opacity="1">
<path d="M40 20L40 160L440 160L440 20L40 20Z" fill="none" opacity="1" stroke="#fdf0ab" stroke-linecap="butt" stroke-linejoin="round" stroke-width="0.991263"/>
<path d="M0 220L480 220L480 240L0 240L0 220Z" fill="#ebdf92" fill-opacity="0" fill-rule="nonzero" opacity="1" stroke="#fdf0ab" stroke-linecap="butt" stroke-linejoin="round" stroke-width="0.991263"/>
<path d="M117.414-5.68434e-14L120 220" fill="none" opacity="1" stroke="#fdf0ab" stroke-linecap="butt" stroke-linejoin="round" stroke-width="0.991263"/>
<path d="M360-5.68434e-14L360.001 220" fill="none" opacity="1" stroke="#fdf0ab" stroke-linecap="butt" stroke-linejoin="round" stroke-width="0.991263"/>
<path d="M180-5.68434e-14L180.857 220" fill="none" opacity="1" stroke="#fdf0ab" stroke-linecap="butt" stroke-linejoin="round" stroke-width="0.991263"/>
<path d="M240-5.68434e-14L243.608 220" fill="none" opacity="1" stroke="#fdf0ab" stroke-linecap="butt" stroke-linejoin="round" stroke-width="0.991263"/>
<path d="M300-5.68434e-14L303.7 220" fill="none" opacity="1" stroke="#fdf0ab" stroke-linecap="butt" stroke-linejoin="round" stroke-width="0.991263"/>
</g>
</g>
</svg>
